<mxfile host="app.diagrams.net" modified="2023-08-07T12:22:24.153Z" agent="Mozilla/5.0 (Windows NT 10.0; Win64; x64) AppleWebKit/537.36 (KHTML, like Gecko) Chrome/115.0.0.0 Safari/537.36" etag="VdEcOabg9GfOe-IdkFYn" version="21.6.6" type="device">
  <diagram name="Page-1" id="pnF1uV7vGt9ag2ZkQDC_">
    <mxGraphModel dx="1046" dy="566" grid="1" gridSize="10" guides="1" tooltips="1" connect="1" arrows="1" fold="1" page="1" pageScale="1" pageWidth="850" pageHeight="1100" math="0" shadow="0">
      <root>
        <mxCell id="0" />
        <mxCell id="1" parent="0" />
        <mxCell id="yqc-T_PfiTp3RzfAOnrA-1" value="" style="outlineConnect=0;dashed=0;verticalLabelPosition=bottom;verticalAlign=top;align=center;html=1;shape=mxgraph.aws3.ec2;fillColor=#F58534;gradientColor=none;" vertex="1" parent="1">
          <mxGeometry x="250" y="210" width="40" height="50" as="geometry" />
        </mxCell>
        <mxCell id="yqc-T_PfiTp3RzfAOnrA-2" value="" style="outlineConnect=0;dashed=0;verticalLabelPosition=bottom;verticalAlign=top;align=center;html=1;shape=mxgraph.aws3.ec2;fillColor=#F58534;gradientColor=none;" vertex="1" parent="1">
          <mxGeometry x="450" y="210" width="40" height="50" as="geometry" />
        </mxCell>
        <mxCell id="yqc-T_PfiTp3RzfAOnrA-4" value="" style="outlineConnect=0;dashed=0;verticalLabelPosition=bottom;verticalAlign=top;align=center;html=1;shape=mxgraph.aws3.ec2;fillColor=#F58534;gradientColor=none;" vertex="1" parent="1">
          <mxGeometry x="250" y="340" width="40" height="50" as="geometry" />
        </mxCell>
        <object label="" AWS="JHKLK" id="yqc-T_PfiTp3RzfAOnrA-6">
          <mxCell style="outlineConnect=0;dashed=0;verticalLabelPosition=bottom;verticalAlign=top;align=center;html=1;shape=mxgraph.aws3.internet_gateway;fillColor=#F58534;gradientColor=none;" vertex="1" parent="1">
            <mxGeometry x="130" y="60" width="40" height="40" as="geometry" />
          </mxCell>
        </object>
        <mxCell id="yqc-T_PfiTp3RzfAOnrA-7" value="" style="outlineConnect=0;dashed=0;verticalLabelPosition=bottom;verticalAlign=top;align=center;html=1;shape=mxgraph.aws3.vpc_nat_gateway;fillColor=#F58534;gradientColor=none;" vertex="1" parent="1">
          <mxGeometry x="295" y="235.5" width="30" height="24.5" as="geometry" />
        </mxCell>
        <mxCell id="yqc-T_PfiTp3RzfAOnrA-10" value="" style="outlineConnect=0;dashed=0;verticalLabelPosition=bottom;verticalAlign=top;align=center;html=1;shape=mxgraph.aws3.router;fillColor=#F58534;gradientColor=none;" vertex="1" parent="1">
          <mxGeometry x="650" y="222.5" width="30" height="32.5" as="geometry" />
        </mxCell>
        <mxCell id="yqc-T_PfiTp3RzfAOnrA-11" value="" style="rounded=1;arcSize=10;dashed=1;fillColor=none;gradientColor=none;dashPattern=8 3 1 3;strokeWidth=2;" vertex="1" parent="1">
          <mxGeometry x="200" y="195" width="135" height="80" as="geometry" />
        </mxCell>
        <mxCell id="yqc-T_PfiTp3RzfAOnrA-12" value="" style="rounded=1;arcSize=10;dashed=1;fillColor=none;gradientColor=none;dashPattern=8 3 1 3;strokeWidth=2;" vertex="1" parent="1">
          <mxGeometry x="205" y="325" width="130" height="80" as="geometry" />
        </mxCell>
        <mxCell id="yqc-T_PfiTp3RzfAOnrA-13" value="" style="rounded=1;arcSize=10;dashed=1;fillColor=none;gradientColor=none;dashPattern=8 3 1 3;strokeWidth=2;" vertex="1" parent="1">
          <mxGeometry x="410" y="195" width="130" height="80" as="geometry" />
        </mxCell>
        <mxCell id="yqc-T_PfiTp3RzfAOnrA-14" value="" style="rounded=1;arcSize=10;dashed=1;fillColor=none;gradientColor=none;dashPattern=8 3 1 3;strokeWidth=2;" vertex="1" parent="1">
          <mxGeometry x="405" y="325" width="130" height="80" as="geometry" />
        </mxCell>
        <mxCell id="yqc-T_PfiTp3RzfAOnrA-18" value="" style="outlineConnect=0;dashed=0;verticalLabelPosition=bottom;verticalAlign=top;align=center;html=1;shape=mxgraph.aws3.vpc;fillColor=#F58534;gradientColor=none;" vertex="1" parent="1">
          <mxGeometry x="165" y="120" width="40" height="56" as="geometry" />
        </mxCell>
        <mxCell id="yqc-T_PfiTp3RzfAOnrA-19" value="" style="rounded=1;arcSize=10;dashed=1;fillColor=none;gradientColor=none;dashPattern=8 3 1 3;strokeWidth=2;" vertex="1" parent="1">
          <mxGeometry x="155" y="150.01" width="420" height="290" as="geometry" />
        </mxCell>
        <mxCell id="yqc-T_PfiTp3RzfAOnrA-20" value="" style="rounded=1;arcSize=10;dashed=1;fillColor=none;gradientColor=none;dashPattern=8 3 1 3;strokeWidth=2;points=[[0,0,0,0,0],[0,0.25,0,0,0],[0,0.5,0,0,0],[0,0.75,0,0,0],[0,1,0,0,0],[0.25,0,0,0,0],[0.25,1,0,0,0],[0.5,0,0,0,0],[0.5,1,0,0,0],[0.75,0,0,0,0],[0.75,1,0,0,0],[1,0,0,0,0],[1,0.25,0,0,0],[1,0.5,0,0,0],[1,0.75,0,0,0],[1,1,0,0,0]];" vertex="1" parent="1">
          <mxGeometry x="115" y="70" width="620" height="400" as="geometry" />
        </mxCell>
        <mxCell id="yqc-T_PfiTp3RzfAOnrA-32" value="" style="rounded=1;arcSize=10;fillColor=none;gradientColor=none;strokeWidth=2;movable=1;resizable=1;rotatable=1;deletable=1;editable=1;locked=0;connectable=1;" vertex="1" parent="1">
          <mxGeometry x="177.5" y="184" width="180" height="240" as="geometry" />
        </mxCell>
        <mxCell id="yqc-T_PfiTp3RzfAOnrA-33" value="" style="rounded=1;arcSize=10;fillColor=none;gradientColor=none;strokeWidth=2;" vertex="1" parent="1">
          <mxGeometry x="389" y="180" width="170" height="239.75" as="geometry" />
        </mxCell>
        <mxCell id="yqc-T_PfiTp3RzfAOnrA-34" value="EC2" style="text;strokeColor=none;align=center;fillColor=none;html=1;verticalAlign=middle;whiteSpace=wrap;rounded=0;" vertex="1" parent="1">
          <mxGeometry x="479" y="220" width="60" height="30" as="geometry" />
        </mxCell>
        <mxCell id="yqc-T_PfiTp3RzfAOnrA-35" value="EC2" style="text;strokeColor=none;align=center;fillColor=none;html=1;verticalAlign=middle;whiteSpace=wrap;rounded=0;" vertex="1" parent="1">
          <mxGeometry x="210" y="222.5" width="40" height="25" as="geometry" />
        </mxCell>
        <mxCell id="yqc-T_PfiTp3RzfAOnrA-36" value="EC2" style="text;strokeColor=none;align=center;fillColor=none;html=1;verticalAlign=middle;whiteSpace=wrap;rounded=0;" vertex="1" parent="1">
          <mxGeometry x="200" y="350" width="60" height="30" as="geometry" />
        </mxCell>
        <mxCell id="yqc-T_PfiTp3RzfAOnrA-37" value="DB" style="text;strokeColor=none;align=center;fillColor=none;html=1;verticalAlign=middle;whiteSpace=wrap;rounded=0;" vertex="1" parent="1">
          <mxGeometry x="480" y="360" width="60" height="30" as="geometry" />
        </mxCell>
        <mxCell id="yqc-T_PfiTp3RzfAOnrA-40" value="VPC" style="text;strokeColor=none;align=center;fillColor=none;html=1;verticalAlign=middle;whiteSpace=wrap;rounded=0;" vertex="1" parent="1">
          <mxGeometry x="155" y="100" width="60" height="30" as="geometry" />
        </mxCell>
        <mxCell id="yqc-T_PfiTp3RzfAOnrA-41" value="" style="outlineConnect=0;dashed=0;verticalLabelPosition=bottom;verticalAlign=top;align=center;html=1;shape=mxgraph.aws3.cloud_2;fillColor=#F58534;gradientColor=none;" vertex="1" parent="1">
          <mxGeometry x="130" y="50" width="50" height="50" as="geometry" />
        </mxCell>
        <mxCell id="yqc-T_PfiTp3RzfAOnrA-42" value="AVAILABILITY ZONE1" style="text;strokeColor=none;align=center;fillColor=none;html=1;verticalAlign=middle;whiteSpace=wrap;rounded=0;" vertex="1" parent="1">
          <mxGeometry x="210" y="155" width="130" height="25" as="geometry" />
        </mxCell>
        <mxCell id="yqc-T_PfiTp3RzfAOnrA-43" value="AVAILABILITY ZONE2" style="text;strokeColor=none;align=center;fillColor=none;html=1;verticalAlign=middle;whiteSpace=wrap;rounded=0;" vertex="1" parent="1">
          <mxGeometry x="400" y="160" width="140" height="10" as="geometry" />
        </mxCell>
        <mxCell id="yqc-T_PfiTp3RzfAOnrA-44" value="AVAILABILITY REGION" style="text;strokeColor=none;align=center;fillColor=none;html=1;verticalAlign=middle;whiteSpace=wrap;rounded=0;" vertex="1" parent="1">
          <mxGeometry x="290" y="430" width="190" height="40" as="geometry" />
        </mxCell>
        <mxCell id="yqc-T_PfiTp3RzfAOnrA-47" value="PUBLIC SUBNET" style="text;strokeColor=none;align=center;fillColor=none;html=1;verticalAlign=middle;whiteSpace=wrap;rounded=0;" vertex="1" parent="1">
          <mxGeometry x="205" y="195" width="130" height="25" as="geometry" />
        </mxCell>
        <mxCell id="yqc-T_PfiTp3RzfAOnrA-49" value="PUBLIC SUBNET" style="text;strokeColor=none;align=center;fillColor=none;html=1;verticalAlign=middle;whiteSpace=wrap;rounded=0;" vertex="1" parent="1">
          <mxGeometry x="409" y="195" width="130" height="25" as="geometry" />
        </mxCell>
        <mxCell id="yqc-T_PfiTp3RzfAOnrA-51" value="" style="outlineConnect=0;dashed=0;verticalLabelPosition=bottom;verticalAlign=top;align=center;html=1;shape=mxgraph.aws3.vpc_nat_gateway;fillColor=#F58534;gradientColor=none;" vertex="1" parent="1">
          <mxGeometry x="495" y="247.5" width="30" height="24.5" as="geometry" />
        </mxCell>
        <mxCell id="yqc-T_PfiTp3RzfAOnrA-53" value="PRIVATE SUBNET" style="text;strokeColor=none;align=center;fillColor=none;html=1;verticalAlign=middle;whiteSpace=wrap;rounded=0;" vertex="1" parent="1">
          <mxGeometry x="405" y="325" width="130" height="25" as="geometry" />
        </mxCell>
        <mxCell id="yqc-T_PfiTp3RzfAOnrA-57" value="PRIVATE SUBNET" style="text;strokeColor=none;align=center;fillColor=none;html=1;verticalAlign=middle;whiteSpace=wrap;rounded=0;" vertex="1" parent="1">
          <mxGeometry x="202.5" y="325" width="130" height="25" as="geometry" />
        </mxCell>
        <mxCell id="yqc-T_PfiTp3RzfAOnrA-58" value="" style="rounded=1;arcSize=10;fillColor=none;gradientColor=none;strokeWidth=2;movable=1;resizable=1;rotatable=1;deletable=1;editable=1;locked=0;connectable=1;" vertex="1" parent="1">
          <mxGeometry x="190" y="189.5" width="360" height="100" as="geometry" />
        </mxCell>
        <mxCell id="yqc-T_PfiTp3RzfAOnrA-59" value="" style="endArrow=none;html=1;rounded=0;" edge="1" parent="1">
          <mxGeometry width="50" height="50" relative="1" as="geometry">
            <mxPoint x="550" y="240" as="sourcePoint" />
            <mxPoint x="600" y="240" as="targetPoint" />
          </mxGeometry>
        </mxCell>
        <mxCell id="yqc-T_PfiTp3RzfAOnrA-60" value="" style="sketch=0;outlineConnect=0;fontColor=#232F3E;gradientColor=none;fillColor=#3F8624;strokeColor=none;dashed=0;verticalLabelPosition=bottom;verticalAlign=top;align=center;html=1;fontSize=12;fontStyle=0;aspect=fixed;pointerEvents=1;shape=mxgraph.aws4.iot_greengrass_component_nucleus;" vertex="1" parent="1">
          <mxGeometry x="592" y="220" width="40" height="40" as="geometry" />
        </mxCell>
        <mxCell id="yqc-T_PfiTp3RzfAOnrA-64" style="edgeStyle=orthogonalEdgeStyle;rounded=0;orthogonalLoop=1;jettySize=auto;html=1;exitX=1;exitY=0.5;exitDx=0;exitDy=0;exitPerimeter=0;" edge="1" parent="1" source="yqc-T_PfiTp3RzfAOnrA-61" target="yqc-T_PfiTp3RzfAOnrA-62">
          <mxGeometry relative="1" as="geometry" />
        </mxCell>
        <mxCell id="yqc-T_PfiTp3RzfAOnrA-61" value="" style="outlineConnect=0;dashed=0;verticalLabelPosition=bottom;verticalAlign=top;align=center;html=1;shape=mxgraph.aws3.internet_gateway;fillColor=#F58534;gradientColor=none;" vertex="1" parent="1">
          <mxGeometry x="700" y="204" width="69" height="72" as="geometry" />
        </mxCell>
        <mxCell id="yqc-T_PfiTp3RzfAOnrA-62" value="" style="sketch=0;outlineConnect=0;fontColor=#232F3E;gradientColor=none;fillColor=#232F3D;strokeColor=none;dashed=0;verticalLabelPosition=bottom;verticalAlign=top;align=center;html=1;fontSize=12;fontStyle=0;aspect=fixed;pointerEvents=1;shape=mxgraph.aws4.internet_alt2;" vertex="1" parent="1">
          <mxGeometry x="800" y="132" width="78" height="78" as="geometry" />
        </mxCell>
        <mxCell id="yqc-T_PfiTp3RzfAOnrA-63" value="" style="endArrow=none;html=1;rounded=0;entryX=0;entryY=0.5;entryDx=0;entryDy=0;entryPerimeter=0;" edge="1" parent="1" target="yqc-T_PfiTp3RzfAOnrA-61">
          <mxGeometry width="50" height="50" relative="1" as="geometry">
            <mxPoint x="630" y="239.5" as="sourcePoint" />
            <mxPoint x="680" y="189.5" as="targetPoint" />
          </mxGeometry>
        </mxCell>
        <mxCell id="yqc-T_PfiTp3RzfAOnrA-65" value="" style="image;aspect=fixed;perimeter=ellipsePerimeter;html=1;align=center;shadow=0;dashed=0;spacingTop=3;image=img/lib/active_directory/databases.svg;" vertex="1" parent="1">
          <mxGeometry x="440" y="350.5" width="50" height="49" as="geometry" />
        </mxCell>
        <mxCell id="yqc-T_PfiTp3RzfAOnrA-67" value="" style="outlineConnect=0;dashed=0;verticalLabelPosition=bottom;verticalAlign=top;align=center;html=1;shape=mxgraph.aws3.route_table;fillColor=#F58536;gradientColor=none;" vertex="1" parent="1">
          <mxGeometry x="640" y="154" width="40" height="30" as="geometry" />
        </mxCell>
        <mxCell id="yqc-T_PfiTp3RzfAOnrA-68" value="" style="endArrow=classic;startArrow=classic;html=1;rounded=0;exitX=0.47;exitY=0.05;exitDx=0;exitDy=0;exitPerimeter=0;" edge="1" parent="1" source="yqc-T_PfiTp3RzfAOnrA-60" target="yqc-T_PfiTp3RzfAOnrA-67">
          <mxGeometry width="50" height="50" relative="1" as="geometry">
            <mxPoint x="470" y="280" as="sourcePoint" />
            <mxPoint x="520" y="230" as="targetPoint" />
            <Array as="points" />
          </mxGeometry>
        </mxCell>
        <mxCell id="yqc-T_PfiTp3RzfAOnrA-69" value="" style="endArrow=classic;html=1;rounded=0;entryX=0.333;entryY=0.805;entryDx=0;entryDy=0;entryPerimeter=0;exitX=0.821;exitY=0.04;exitDx=0;exitDy=0;exitPerimeter=0;" edge="1" parent="1" source="yqc-T_PfiTp3RzfAOnrA-57" target="yqc-T_PfiTp3RzfAOnrA-58">
          <mxGeometry width="50" height="50" relative="1" as="geometry">
            <mxPoint x="307.5" y="325" as="sourcePoint" />
            <mxPoint x="358" y="280" as="targetPoint" />
          </mxGeometry>
        </mxCell>
        <mxCell id="yqc-T_PfiTp3RzfAOnrA-70" value="" style="endArrow=classic;html=1;rounded=0;entryX=0.333;entryY=0.805;entryDx=0;entryDy=0;entryPerimeter=0;exitX=0.821;exitY=0.04;exitDx=0;exitDy=0;exitPerimeter=0;" edge="1" parent="1">
          <mxGeometry width="50" height="50" relative="1" as="geometry">
            <mxPoint x="509.5" y="327.88" as="sourcePoint" />
            <mxPoint x="510.5" y="271.88" as="targetPoint" />
          </mxGeometry>
        </mxCell>
        <mxCell id="yqc-T_PfiTp3RzfAOnrA-76" value="ROUTER" style="text;strokeColor=none;align=center;fillColor=none;html=1;verticalAlign=middle;whiteSpace=wrap;rounded=0;" vertex="1" parent="1">
          <mxGeometry x="627.5" y="255" width="75" height="20" as="geometry" />
        </mxCell>
        <mxCell id="yqc-T_PfiTp3RzfAOnrA-77" value="NACL" style="text;strokeColor=none;align=center;fillColor=none;html=1;verticalAlign=middle;whiteSpace=wrap;rounded=0;" vertex="1" parent="1">
          <mxGeometry x="575" y="260" width="75" height="20" as="geometry" />
        </mxCell>
        <mxCell id="yqc-T_PfiTp3RzfAOnrA-78" value="ROUTETABLE" style="text;strokeColor=none;align=center;fillColor=none;html=1;verticalAlign=middle;whiteSpace=wrap;rounded=0;" vertex="1" parent="1">
          <mxGeometry x="622.5" y="132" width="75" height="20" as="geometry" />
        </mxCell>
        <mxCell id="yqc-T_PfiTp3RzfAOnrA-79" value="INTERNETGATEWAY" style="text;strokeColor=none;align=center;fillColor=none;html=1;verticalAlign=middle;whiteSpace=wrap;rounded=0;" vertex="1" parent="1">
          <mxGeometry x="702.5" y="280" width="75" height="20" as="geometry" />
        </mxCell>
        <mxCell id="yqc-T_PfiTp3RzfAOnrA-80" value="&lt;br&gt;&lt;br&gt;&lt;br&gt;&lt;br&gt;&lt;br&gt;&lt;br&gt;&lt;br&gt;&lt;br&gt;&lt;br&gt;&lt;br&gt;&lt;br&gt;&lt;br&gt;&lt;br&gt;SECURITY GROUP" style="fillColor=none;strokeColor=#DD3522;verticalAlign=top;fontStyle=0;fontColor=#DD3522;whiteSpace=wrap;html=1;" vertex="1" parent="1">
          <mxGeometry x="210" y="210" width="110" height="220" as="geometry" />
        </mxCell>
        <mxCell id="yqc-T_PfiTp3RzfAOnrA-81" value="INTERNET" style="text;strokeColor=none;align=center;fillColor=none;html=1;verticalAlign=middle;whiteSpace=wrap;rounded=0;" vertex="1" parent="1">
          <mxGeometry x="810" y="220" width="75" height="20" as="geometry" />
        </mxCell>
      </root>
    </mxGraphModel>
  </diagram>
</mxfile>
